Patient4_TMGait_0pt2_03_right_10_EMG.mot
version=1
nRows=23
nColumns=33
inDegrees=no
endheader
time	1LAddLong	2LGlutMax	3LGlutMed	4LIliopsoas	5LSemiMemb	6LBicFemLong	7LRecFem	8LVastMed	9LVastLat	10LGasMed	11LTibAnt	12lTibPost	13LPeroneusLong	14LSol	15LExtDigLong	16LFlexDigLong	17RAddLong	18RGlutMax	19RGlutMed	20RIliopsoas	21RSemiMemb	22RBicFemLong	23RRecFem	24RVastMed	25RVastLat	26RGasMed	27RTibAnt	28RTibPost	29RPeroneusLong	30RSol	31RExtDigLong	32RFlexDigLong
22.87	0.015717	-0.059814	0.01236	0.010529	0.078888	-0.13397	-0.029755	-0.006714	-0.029144	0.035706	-0.006256	-0.029907	0.042572	0.029144	0.095673	-0.007019	0.005798	-0.045319	-0.12268	0.081024	0.016632	0.054169	0.15472	0.12466	-0.067444	-0.044708	-0.021973	0.059204	0.82535	0.49606	-0.014191	-0.007324
22.871	0.007172	-0.020752	-0.014648	-0.00061	0.023651	-0.090332	-0.065155	-0.001221	0.005798	0.031128	-0.044403	-0.016632	0.022278	0.027161	0.051575	-0.001068	0.010223	-0.014648	-0.44144	0.045776	0.012512	0.034485	0.14511	0.045776	-0.11215	-0.039063	0.036621	0.023041	0.31876	0.84106	-0.009155	-0.014343
22.872	-0.010681	-0.038757	-0.001373	0.006714	-0.015259	0.026245	-0.068817	0.011597	0.001831	0.028076	-0.040436	-0.055542	0.013428	0.04364	0.032196	-0.002594	0.005951	-0.046387	-0.21454	-0.084534	0.011902	0.024719	-0.10376	-0.064392	-0.072021	-0.029602	0.022278	0.001373	0.051727	0.40695	-0.009766	-0.009003
22.873	-0.013885	-0.000916	0.054169	0.030212	-0.084076	0.14526	-0.041656	0.016479	-0.021667	0.001068	-0.019989	-0.00824	-0.047607	0.04425	-0.006104	-0.002136	0.008087	-0.028534	-0.15091	-0.065002	0.018463	0.03067	-0.16907	-0.15961	-0.036163	-0.024872	0.005493	0.018158	0.037231	0.35934	-0.012665	-0.009613
22.874	-0.024109	0.005188	-0.013428	0.021057	-0.12482	0.21057	-0.036926	0.015869	0.003815	-0.025787	-0.015564	-0.032806	-0.057068	0.056458	-0.091858	0.009308	0.007935	-0.03067	-0.18906	0.011139	0.015564	0.024109	0.001526	-0.2002	-0.00473	-0.022125	-0.010681	0.005188	-0.004578	0.38132	-0.011902	-0.003662
22.875	-0.018005	0.035248	-0.00473	-0.000916	-0.088806	0.15457	-0.058594	0.009766	0.001678	-0.015564	-0.049591	-0.03006	-0.063171	0.091553	-0.10468	0	0.022583	-0.001373	0.012054	-0.027924	0.005646	0.018158	0.026398	-0.10788	0.093994	-0.014648	0.044098	-0.002136	-0.18829	0.22705	-0.014343	-0.010529
22.876	-0.001068	0.039215	0.070953	-0.000305	-0.029755	0.11322	-0.095673	0.019531	0.06958	-0.001831	-0.015259	-0.021057	-0.029755	0.083923	-0.15717	0.005951	0.022583	-0.064392	-0.29129	-0.1033	0.007324	0.00824	-0.39566	-0.10361	0.28	-0.014648	0.049896	-0.003815	-0.33463	0.042419	-0.009308	-0.013428
22.877	-0.01297	0.023041	-0.059357	0.015259	-0.040283	0.11261	-0.051422	0.032349	0.14084	-0.022278	-0.080719	-0.011597	0.11002	0.077972	-0.18372	0.006866	0.023346	-0.054932	-0.32196	-0.1561	0.012207	0.02243	-0.29862	0.001831	0.27222	-0.006714	0.067902	0.003204	-0.56503	0.14496	-0.007019	-0.010071
22.878	-0.017242	0.029907	-0.15686	-0.002594	-0.07431	0.045929	-0.036163	0.027161	0.020447	-0.010223	-0.004578	-0.017853	0.12772	0.045319	-0.19073	-0.005646	0.02121	-0.086975	-0.25833	-0.087128	0.011139	0.017548	-0.087585	-0.015564	0.097809	0.000153	0.12146	-0.004425	-0.86426	0.045776	-0.010223	-0.010681
22.879	0.001373	0.046234	-0.19577	0.00412	-0.022583	-0.047607	-0.085449	0.02243	0.054321	-0.002289	0.055084	-0.017395	0.10284	-0.007172	-0.080414	-0.008698	0.00885	-0.059052	-0.17975	-0.010529	0.01709	0.028229	-0.16998	-0.018005	0.048523	-0.001678	0.27679	-0.005035	-0.47363	0.052643	-0.012512	-0.016785
22.88	0.003815	0.090485	-0.018463	-0.002747	-0.027008	-0.091705	-0.13534	0.019226	0.10544	0.002899	0.019379	-0.008545	0.067596	-0.05188	0.10605	-0.012817	0.002747	-0.05661	0.011902	0.027618	0.013733	0.014648	-0.3067	-0.020752	-0.007629	-0.002289	0.28305	-0.011292	-0.99381	0.18936	-0.00946	-0.007477
22.881	0.005646	0.074463	0.1033	0.009613	-0.038452	-0.088043	-0.15427	0.026703	0.075226	0.016632	-0.031128	-0.011444	0.061493	-0.086365	-0.002441	-0.014496	0.00885	-0.044403	-0.045776	0.096436	0.016174	0.014496	-0.22079	0.019379	0.041504	0.007019	-0.19104	-0.009918	0.81528	0.16022	-0.011749	-0.007629
22.882	0.024261	0.04776	0.15884	0.023499	-0.047455	-0.03006	-0.091553	0.013885	0.002441	0.020142	-0.073242	-0.004578	0.043793	-0.066223	-0.16251	-0.010986	0.010223	-0.061493	-0.21072	0.079498	0.005798	0.004883	0.001678	0.010071	-0.001526	0.003967	-0.44601	-0.012665	0.92865	0.015411	-0.009308	-0.004425
22.883	0.025024	0.032959	0.17151	0.01297	-0.02533	0.009613	-0.12573	-0.07019	-0.13855	0.020142	-0.092316	-0.01236	0.056152	-0.076904	-0.086212	-0.019379	0.010986	-0.032654	-0.16129	-0.048065	0.003052	0.004272	-0.099792	-0.057068	-0.032501	0.006866	-0.21439	-0.005493	0.76736	-0.002289	-0.010681	-0.002594
22.884	0.037842	0.050812	0.13443	0.022125	0.084229	0.013123	-0.084839	-0.024872	0.014038	0.01358	-0.10101	-0.005951	0.057678	-0.03479	0.089569	-0.002747	0.005646	-0.05188	-0.054626	-0.14404	0.010223	0.014801	-0.18829	-0.067902	-0.021973	0.001068	-0.068054	-0.003052	0.74051	-0.006104	-0.009155	-0.007019
22.885	0.033112	0.082092	0.032043	0.018463	0.03067	0.029297	-0.041962	-0.015259	0.089417	0.005646	-0.020294	-0.005035	0.039215	-0.031738	0.12207	-0.011139	0.00412	-0.034485	-0.07309	-0.19714	0.002747	-0.001678	-0.15152	-0.077972	-0.024567	0.001373	0.063019	-0.010223	0.40939	-0.002594	-0.008087	-0.013123
22.886	0.033417	0.07431	-0.016479	-0.012207	0.035553	0.034332	-0.12665	-0.013275	0.092163	0.002441	0.065308	-0.004578	0.056915	-0.018768	-0.0354	-0.008545	0.007019	-0.00946	-0.10284	-0.10071	0.003967	0.002289	-0.20813	-0.031281	-0.006561	-0.001221	-0.01236	-0.00946	0.15762	-0.049896	-0.008698	-0.011139
22.887	0.035248	0.088654	0.033264	0.00061	0.082092	0.007782	-0.10025	-0.021973	0.062561	0.005951	0.21606	-0.002899	0.014343	-0.063171	0.10407	-0.009003	0.011292	-0.078583	-0.16907	0.10773	-0.002289	0.010071	-0.22873	-0.045624	0.014801	-0.000305	-0.16281	-0.007782	0.9819	-0.043335	-0.007477	-0.019073
22.888	0.02655	0.048828	0.027924	-0.004425	0.11948	0.008698	-0.006714	-0.015564	-0.00824	0.000458	0.1651	-0.010529	-0.028076	-0.073853	0.32349	-0.002594	0.003815	0.038147	0.042114	0.23056	0.016785	-0.012207	-0.1181	-0.030365	-0.025787	-0.002136	-0.19882	-0.004272	0.6456	-0.011902	-0.002747	-0.023956
22.889	0.006714	0.072327	-0.029602	-0.003052	0.063019	0.058136	-0.010376	-0.008392	-0.031128	0.005035	0.041504	0.000305	-0.051117	-0.064392	0.014343	-0.009918	0.009918	-0.034943	-0.12238	0.1973	0.014648	0.00885	-0.098572	-0.022736	-0.053558	-0.004883	-0.13153	-0.007477	0.18158	-0.036011	-0.007477	-0.02533
22.89	0.001678	0.086212	-0.056	-0.00824	0.017395	0.098267	0.004578	-0.001068	-0.011292	-0.014648	-0.045624	-0.012054	-0.084991	-0.065308	0.043488	0.005798	0.010376	-0.00061	-0.14389	0.077209	0.007477	-0.011292	-0.074005	-0.10407	-0.05249	0.007019	-0.11353	-0.010223	0.44891	-0.15213	-0.005951	-0.019379
22.891	-0.003204	0.09964	0.091248	0.004272	-0.038147	0.088348	-0.027313	0.001221	-0.005798	0.023956	-0.12421	-0.005035	-0.041351	-0.087433	0.023499	-0.003357	0.005035	-0.028992	-0.087128	0.025482	0.015411	-0.014038	-0.11551	-0.082397	-0.058899	0.008545	-0.059509	-0.001068	-0.38681	-0.050049	-0.007172	-0.008545
22.892	-0.011902	0.085907	0.095978	0.007477	0.000916	0.059357	-0.048828	0.008087	0.001068	0.020142	-0.11322	-0.006866	0.003967	-0.07309	-0.043945	-0.006714	0.012665	-0.018158	-0.084839	-0.063477	0.012817	-0.012207	-0.13245	-0.020905	0.009918	0.004578	-0.022583	-0.007935	0.11978	-0.009766	-0.005341	-0.021667
